<svg class="icon" viewBox="0 0 1024 1024" xmlns="http://www.w3.org/2000/svg" width="200" height="200"><path d="M671.83 511.699l319.06-319.06c43.946-43.945 43.946-115.583 0-159.53-43.946-43.945-115.584-43.945-159.53 0L512.301 352.17 193.241 33.11c-43.945-43.945-115.583-43.945-159.53 0-43.945 43.947-43.945 115.585 0 159.53l319.06 319.06-319.06 319.06c-43.945 43.945-43.945 115.583 0 159.53 43.947 43.945 115.585 43.945 159.53 0l319.06-319.06 319.06 319.06c43.945 43.945 115.583 43.945 159.53 0 43.945-43.947 43.945-115.585 0-159.53L671.831 511.7z"/></svg>